<svg width="44" height="43" viewBox="0 0 44 43" fill="none" xmlns="http://www.w3.org/2000/svg">
<path d="M20.1625 0.0421172C17.0451 0.336208 14.6756 1.00001 12.0876 2.30242C10.0289 3.32753 8.35683 4.55431 6.58389 6.31886C4.7017 8.20944 3.50853 9.87315 2.38259 12.2091C1.05498 14.9483 0.391172 17.6708 0.273535 20.7797C0.147496 24.3592 0.886925 27.7707 2.48342 30.9805C3.60096 33.2408 4.76052 34.8373 6.58389 36.669C8.44086 38.5176 10.0458 39.6688 12.3061 40.7779C13.8857 41.5509 14.9025 41.9291 16.5074 42.3324C20.7086 43.3911 24.9268 43.1894 29.0272 41.7358C30.2792 41.2905 32.4471 40.2065 33.5646 39.4587C36.6316 37.4169 39.1692 34.602 40.8413 31.367C42.3621 28.4429 43.1184 25.5356 43.2444 22.2082C43.3705 18.6287 42.631 15.2172 41.0345 12.0074C39.9926 9.90676 38.8246 8.25145 37.1861 6.56253C35.3712 4.68035 33.5898 3.38635 31.2119 2.20999C28.7247 0.983208 26.4056 0.319403 23.6496 0.067325C22.7925 -0.00829836 20.8515 -0.0251035 20.1625 0.0421172ZM18.9609 13.7047C20.1541 14.1081 20.9775 14.8727 21.4397 16.0154C21.5993 16.4272 21.6329 16.6456 21.6329 17.5867C21.6329 18.5614 21.6077 18.7295 21.4313 19.1244C21.1876 19.6622 20.4986 20.3176 20.0028 20.4856C19.6079 20.6117 19.5491 20.7377 19.8936 20.7377C20.2465 20.7377 20.9523 21.1242 21.3052 21.5107C22.3472 22.6703 22.5824 25.1155 21.801 26.7708C21.4145 27.5942 20.7507 28.258 19.9104 28.6614C18.6836 29.2495 18.7004 29.2495 13.5917 29.2831L8.98703 29.3168V21.3679V13.419L13.6337 13.4443L18.2719 13.4779L18.9609 13.7047ZM32.0942 15.36V16.3684L28.8424 16.3516L25.5822 16.3263L25.5569 15.4525C25.5485 14.9651 25.5569 14.5198 25.5738 14.461C25.6074 14.3769 26.2544 14.3517 28.8592 14.3517H32.0942V15.36ZM30.775 17.7044C31.6824 17.9396 32.2034 18.2421 32.9008 18.9311C33.9595 19.9815 34.4469 21.3007 34.4721 23.2165L34.4889 24.3088L30.38 24.334L26.2712 24.3508L26.3216 24.8046C26.372 25.3255 26.6325 25.9725 26.9098 26.275C27.6576 27.0817 29.1785 27.3421 30.4473 26.8716C30.9934 26.6615 31.4556 26.1826 31.5648 25.712L31.6404 25.4011L33.0016 25.3759L34.3629 25.3591V25.7709C34.3629 26.3086 34.094 27.1573 33.7663 27.653C33.2285 28.4765 32.2286 29.0899 30.9346 29.4092C29.9935 29.6361 28.271 29.6529 27.2627 29.4344C25.4897 29.0563 24.2798 28.1488 23.5655 26.6615C23.0866 25.6616 22.9101 24.8802 22.9185 23.7206C22.9353 21.0234 24.2798 18.7967 26.4224 17.9312C26.8593 17.7548 27.1198 17.6876 28.1449 17.5111C28.6071 17.4271 30.1448 17.5447 30.775 17.7044Z" fill="white"/>
<path d="M12.6001 18.0572V19.8218L15.0621 19.7966C17.3056 19.7714 17.5324 19.7546 17.7509 19.6117C18.129 19.3596 18.255 19.0151 18.2971 18.1665C18.3391 17.2422 18.2382 16.8893 17.8433 16.5364L17.5492 16.2843H15.0789H12.6001V18.0572Z" fill="white"/>
<path d="M12.6001 24.3592V26.4598L15.1461 26.4346L17.6837 26.4094L18.0786 26.1826C18.5743 25.8885 18.8264 25.3927 18.8852 24.6113C18.9525 23.5862 18.5911 22.7711 17.8853 22.4182C17.5912 22.2585 17.3812 22.2501 15.0789 22.2501H12.6001V24.3592Z" fill="white"/>
<path d="M28.229 19.889C27.7668 20.0402 27.3215 20.3259 27.019 20.6536C26.6661 21.0401 26.2964 21.7628 26.2964 22.0569V22.2501H28.8676H31.4472L31.3968 21.8384C31.3043 21.0738 30.8422 20.3763 30.2036 20.0402C29.8423 19.8554 28.6239 19.7546 28.229 19.889Z" fill="white"/>
</svg>
