<svg width="43" height="43" viewBox="0 0 43 43" fill="none" xmlns="http://www.w3.org/2000/svg">
<path d="M19.4377 0.0538047C12.7156 0.75122 6.82537 4.40635 3.24586 10.1033C-1.82931 18.1782 -0.87141 28.8999 5.54817 35.8825C9.11928 39.7645 13.539 42.0752 18.8495 42.8314C19.8494 42.9743 23.1516 42.9659 24.1851 42.823C29.4115 42.1004 33.8313 39.7981 37.394 35.9329C40.3265 32.7567 42.2003 28.6899 42.8557 24.1188C42.9985 23.1273 42.9985 19.8167 42.8557 18.8252C42.3599 15.3297 41.2508 12.3636 39.4106 9.59075C38.6376 8.41439 37.8562 7.45649 36.7638 6.35575C33.4112 2.9611 29.2603 0.868857 24.4792 0.163038C23.4457 0.0117917 20.4628 -0.0554291 19.4377 0.0538047ZM31.0753 13.1955C31.571 13.666 31.5794 13.9937 31.1509 17.1447C30.7728 19.9512 29.4704 27.8664 29.0082 30.1267C28.8402 30.9586 28.5125 31.6728 28.1596 31.9753C27.9075 32.2021 27.8151 32.2273 27.3109 32.2273C26.8992 32.2273 26.6387 32.1769 26.3278 32.0257C25.79 31.782 19.2108 27.3454 18.7739 26.9421C18.3789 26.5724 18.1941 26.1775 18.2697 25.8582C18.3789 25.4044 18.8831 24.8667 21.2442 22.6484C24.0339 20.0268 25.4539 18.6403 25.6556 18.3379C25.8404 18.0522 25.706 17.7749 25.3867 17.7749C25.1094 17.7749 25.3363 17.632 19.9418 21.2199C14.9087 24.5642 14.791 24.6314 13.7239 24.6062C12.9088 24.5894 9.66545 23.7071 8.76637 23.2618C7.84208 22.7996 7.95132 22.1106 9.02685 21.5729C9.95954 21.1023 21.0258 16.3464 24.5044 14.9264C29.5628 12.851 30.4619 12.6073 31.0753 13.1955Z" fill="white"/>
</svg>
