<svg width="43" height="43" viewBox="0 0 43 43" fill="none" xmlns="http://www.w3.org/2000/svg">
<path d="M19.4629 0.0479889C12.1695 0.753807 5.64907 5.17357 2.34685 11.6604C1.17889 13.9543 0.489881 16.1642 0.111764 18.8278C-0.0562875 20.0042 -0.0310798 23.0627 0.16218 24.3735C0.489881 26.7094 1.17889 28.9193 2.23762 31.0452C4.32987 35.2633 7.6741 38.6075 11.9006 40.7081C18.7487 44.1196 26.8488 43.6491 33.2348 39.473C35.7304 37.8429 38.0999 35.4229 39.7132 32.8517C40.335 31.877 41.2593 29.978 41.6794 28.8353C42.1079 27.6757 42.6037 25.6759 42.7801 24.3735C42.9734 23.0543 42.9986 19.9957 42.8306 18.8278C42.3348 15.3407 41.2257 12.3662 39.3855 9.59334C38.6125 8.41697 37.831 7.45908 36.7387 6.35834C33.386 2.97209 29.2184 0.871443 24.4541 0.165625C23.429 0.0143785 20.5385 -0.0528423 19.4629 0.0479889ZM23.1013 14.7105C23.2861 14.8029 23.513 14.9878 23.6054 15.1138C23.7735 15.3407 23.7819 15.4583 23.7819 18.1388C23.7903 21.0881 23.8407 21.525 24.1684 21.7603C24.3953 21.9199 24.5465 21.8611 24.9834 21.441C25.975 20.4999 27.269 18.4665 28.042 16.6263C28.2773 16.0549 28.563 15.492 28.6806 15.3827C28.9579 15.1054 29.3696 15.0718 32.0164 15.1054C33.991 15.1306 34.3187 15.1475 34.554 15.2819C34.9321 15.4836 34.9825 15.7524 34.7641 16.4246C34.5036 17.2313 34.0162 18.0043 32.4029 20.1974C30.546 22.7182 30.3863 23.0291 30.6384 23.5164C30.6888 23.6173 31.3694 24.3399 32.1425 25.1297C33.4869 26.4994 34.4028 27.6085 34.7557 28.2891C35.0666 28.9025 34.8985 29.4571 34.3187 29.7596C33.9826 29.9276 32.5374 29.9864 30.7056 29.9024C28.6722 29.8016 28.563 29.7512 26.8824 27.9866C25.5632 26.5918 25.2523 26.3481 24.849 26.3481C24.3364 26.3481 24.1852 26.6674 23.9079 28.2807C23.7567 29.1714 23.7147 29.2638 23.4542 29.5075C23.2105 29.7428 23.1013 29.7764 22.4879 29.8352C20.2696 30.0284 17.8664 29.373 16.0515 28.0706C14.1945 26.743 12.2115 24.1802 10.2537 20.5587C9.37983 18.9454 8.02701 16.0297 8.02701 15.7524C8.02701 15.6348 8.10263 15.4331 8.20346 15.3071L8.37152 15.0886H10.4722C11.7157 15.0886 12.7241 15.1222 12.9341 15.1811C13.4635 15.3155 13.7576 15.6684 14.2029 16.7271C15.1776 19.021 16.9758 21.6931 17.6564 21.8611C18.1017 21.9704 18.2866 21.6511 18.463 20.4747C18.5639 19.7605 18.4966 17.1557 18.3622 16.6767C18.253 16.2902 17.8917 15.9541 17.3875 15.7776C17.1354 15.6852 16.9674 15.5676 16.9506 15.4836C16.8833 15.1559 17.3623 14.7357 17.9841 14.5761C18.1269 14.5425 19.2613 14.5173 20.5049 14.5257C22.5887 14.5425 22.7988 14.5593 23.1013 14.7105Z" fill="white"/>
</svg>
